<svg width="177" height="38" viewBox="0 0 177 38" fill="none" xmlns="http://www.w3.org/2000/svg">
<path d="M110.783 6.5248H104.7V6.13528H86.256V5.96H73.2137V6.33004H62.885V5.96H49.8426V6.25213H45.3177V5.96H32.5675V5.99895H28.127V6.5248H20.4665V5.62891H7.20996V7.63492H1.81515V16.0874L0.685547 21.1512V31.2332H26.9909L28.127 31.9148H32.5675V32.1096H45.3177V31.6259C46.9277 32.1031 48.8266 32.3433 51.0761 32.3433C56.6137 32.3433 60.3141 30.8534 62.0767 27.919C62.3267 27.523 62.5311 27.1043 62.6967 26.6661V32.0317H80.6924V32.1096H104.933V30.5742L106.118 30.0646C107.839 29.3245 109.4 28.3994 110.783 27.3185V32.1096H123.825V5.96H110.783V6.5248Z" fill="#89F1FF"/>
<path d="M176.317 19.0326L171.792 14.5078L168.527 11.2423L166.579 9.29472L157.351 0.0664062L147.613 9.80434L150.064 12.2518H122.561V25.8102H150.064L147.613 28.261L157.351 37.9989L166.579 28.7706L176.317 19.0326Z" fill="#89F1FF"/>
<path d="M5.22656 26.6881V23.533H11.7899V20.3389H15.8604V23.533H22.4432V26.6881H5.22656ZM20.0672 22.2508C17.5548 21.4913 15.4709 20.0695 13.8349 17.9077C12.2184 20.1085 10.115 21.5886 7.64157 22.4261L5.46027 19.7969C7.71947 19.1736 10.2513 17.4987 11.303 15.3174H6.35616V12.1818H11.751V10.1758H15.9188V12.1818H21.3136V15.3174H16.3862C17.4185 17.3818 19.9893 18.8815 22.2095 19.6605L20.0672 22.2508Z" fill="black"/>
<path d="M32.2806 24.764C29.9825 25.2898 26.4768 25.4067 23.8281 25.4067V11.0724H31.6185V14.5002H27.5091V21.8621C29.0087 21.8621 30.4694 21.7257 31.8522 21.4531L32.2806 24.764ZM37.1107 27.5652V19.8723H36.1369V27.3705H32.6702V10.5433H36.1369V16.3472H37.1107V10.5044H40.7721V27.5652H37.1107Z" fill="black"/>
<path d="M52.1287 19.9521C50.3953 19.5626 49.032 18.7641 48.0388 17.4982C46.8897 18.9004 45.4874 19.7184 43.8514 20.3222L41.748 17.7514C44.0657 16.8165 45.5458 15.609 45.8769 13.9731H42.3907V10.7985H53.5894V13.9731H50.0837C50.3759 15.5895 51.6418 16.6412 53.9594 17.3424L52.1287 19.9521ZM51.077 27.7977C45.6822 27.7977 43.5398 26.2201 43.5398 24.0194C43.5398 21.8186 45.6822 20.241 51.077 20.241C56.4718 20.241 58.6336 21.8381 58.6336 24.0388C58.6336 24.5842 58.4973 25.0905 58.2051 25.5385C57.4066 26.9213 55.1085 27.7977 51.077 27.7977ZM51.077 23.2825C48.1167 23.2825 47.5908 23.672 47.5908 24.0226C47.5908 24.3926 48.1167 24.7627 51.077 24.7627C52.5572 24.7627 53.453 24.6848 53.9399 24.5484C54.4268 24.3926 54.5632 24.2174 54.5632 24.0421C54.5632 23.672 54.0568 23.2825 51.077 23.2825ZM54.3879 20.1274V10.5063H58.3415V13.4277H60.0359V16.9529H58.3415V20.1274H54.3879Z" fill="black"/>
<path d="M65.8965 20.03V10.8764H76.2187V20.03H65.8965ZM67.2403 27.4861V21.0785H71.1939V24.1557H81.8277V27.4861H67.2403ZM72.343 14.012H69.7527V16.8944H72.343V14.012ZM77.7573 22.4451V10.5063H81.7109V13.9925H83.4053V17.4982H81.7109V22.4451H77.7573Z" fill="black"/>
<path d="M84.1045 19.4063V16.9134H101.321V19.4063H84.1045ZM85.2341 27.5635V22.7529H96.2185V22.3245H85.2341V20.0458H100.192V24.7784H89.1877V25.2264H100.386V27.5635H85.2341ZM85.273 16.2902V10.6812H100.153V13.0377H89.2266V13.9141H100.289V16.2902H85.273Z" fill="black"/>
<path d="M102.263 23.3228C106.333 21.2778 108.768 18.4927 109.332 14.5002H103.178V11.0724H113.461V12.2994C113.461 18.668 109.897 23.498 104.327 25.8936L102.263 23.3228ZM115.331 27.5652V10.5044H119.285V27.5652H115.331Z" fill="black"/>
<path d="M157.32 16.8032H130.35V21.2729H157.32V16.8032Z" fill="black"/>
<path d="M162.05 20.2505L154.037 28.2632L157.347 31.5729L165.36 23.5602L162.05 20.2505Z" fill="black"/>
<path d="M166.582 15.7239L163.272 19.0337L166.582 22.3434L169.892 19.0337L166.582 15.7239Z" fill="black"/>
<path d="M157.347 6.49688L154.037 9.80664L162.05 17.8194L165.36 14.5096L157.347 6.49688Z" fill="black"/>
</svg>
