<svg width="113" height="30" viewBox="0 0 113 30" fill="none" xmlns="http://www.w3.org/2000/svg">
<path d="M104.404 24.1998L112.63 15.9732L107.749 11.0913L99.5219 2.86469L97.7327 4.65389V-0.000488281H84.4859L76.6005 7.65433V2.44967H64.2482V2.98458H58.6163V2.44967H50.611V2.17299H38.0927V2.44967H29.2021V2.81858H23.4963V2.44967H11.1441V2.98458H0V24.9868L4.11946 25.1651C4.61749 25.1866 5.14625 25.1959 5.68424 25.1959C7.4427 25.1959 9.34257 25.079 11.141 24.8761V27.2156H23.4932V26.3794L25.3777 25.3065C26.091 24.9007 26.7704 24.4335 27.4036 23.9201C27.8679 24.2828 28.3536 24.6241 28.8608 24.9407L29.199 25.1528V27.2187H41.5697V25.4141C42.4397 25.6539 43.3681 25.78 44.3488 25.78C45.0067 25.78 45.6461 25.7216 46.2609 25.6078V27.2187H58.6132V25.8046L59.8275 25.2819C61.4568 24.581 62.9356 23.7049 64.2452 22.6811V27.2187H76.5974V21.9095L84.4828 29.5643H96.7274L97.7327 28.5591L103.248 23.0439L104.404 24.1998Z" fill="#C6FF66"/>
<path d="M14.7942 19.8865C12.1012 20.569 7.72966 21.0117 4.29883 20.8641V7.28833H13.6137V10.5347H8.04323V17.5071C10.0722 17.5071 12.5439 17.2304 14.3515 16.7324L14.7942 19.8865ZM15.4398 22.9115V6.75342H19.1842V12.4346H20.8812V15.7548H19.1842V22.9115H15.4398Z" fill="black"/>
<path d="M31.1383 21.2884C29.5151 20.2739 28.0764 18.8536 27.2832 17.3226C26.6008 18.9458 24.9591 20.5874 23.2437 21.565L20.8643 19.0934C23.7602 17.4702 25.3834 14.9616 25.3834 11.1803V7.12233H29.2016V11.1803C29.2016 14.9247 30.9539 17.1197 33.444 18.6322L31.1383 21.2884ZM33.4993 22.9115V6.75342H37.2622V22.9115H33.4993Z" fill="black"/>
<path d="M38.8096 11.3097V8.50604H42.388V6.47705H46.2984V8.50604H49.8768V11.3097H38.8096ZM44.3432 21.4731C41.2997 21.4731 39.2891 19.5179 39.2891 16.5667C39.2891 13.6154 41.2997 11.6602 44.3432 11.6602C47.3867 11.6602 49.3788 13.6154 49.3788 16.5667C49.3788 17.3045 49.2496 17.9685 49.0099 18.5772C48.3089 20.3664 46.6488 21.4731 44.3432 21.4731ZM45.7266 16.5667C45.7266 14.8328 45.0072 14.3901 44.3432 14.3901C43.6791 14.3901 42.9598 14.8328 42.9598 16.5667C42.9598 18.3005 43.6791 18.7248 44.3432 18.7248C44.5092 18.7248 44.6567 18.6879 44.8228 18.6325C45.3392 18.4481 45.7266 17.8578 45.7266 16.5667ZM50.5593 22.9119V6.75373H54.3037V12.7669H55.9269V16.1055H54.3037V22.9119H50.5593Z" fill="black"/>
<path d="M56.1582 18.8905C60.0133 16.9537 62.319 14.316 62.8539 10.5347H57.0251V7.28833H66.7643V8.45039C66.7643 14.482 63.3888 19.0565 58.1134 21.3252L56.1582 18.8905ZM68.535 22.9115V6.75342H72.2794V22.9115H68.535Z" fill="black"/>
<path d="M102.435 11.8732L100.296 14.0122L104.394 18.1098L106.533 15.9708L102.435 11.8732Z" fill="black"/>
<path d="M96.5869 11.8721L92.4893 15.9697L94.6283 18.1088L98.7259 14.0111L96.5869 11.8721Z" fill="black"/>
<path d="M99.5121 8.95082L97.373 11.0898L99.5121 13.2289L101.651 11.0898L99.5121 8.95082Z" fill="black"/>
<path d="M93.4216 4.30371H87.7773V7.51935H93.4216V4.30371Z" fill="black"/>
<path d="M93.4216 22.0415H87.7773V25.2571H93.4216V22.0415Z" fill="black"/>
<path d="M101.076 14.0132H97.8604V17.6008H101.076V14.0132Z" fill="black"/>
<path d="M83.3406 11.9585H80.125V17.6028H83.3406V11.9585Z" fill="black"/>
<path d="M83.472 17.9191L81.1982 20.1929L85.1894 24.184L87.4631 21.9102L83.472 17.9191Z" fill="black"/>
<path d="M97.7343 17.9151L93.7432 21.9062L96.017 24.1801L100.008 20.1889L97.7343 17.9151Z" fill="black"/>
<path d="M85.1894 5.37608L81.1982 9.36719L83.472 11.641L87.4632 7.64988L85.1894 5.37608Z" fill="black"/>
</svg>
