<svg width="112" height="32" viewBox="0 0 112 32" fill="none" xmlns="http://www.w3.org/2000/svg">
<path d="M108.311 12.8287L101.059 6.01011V0H89.5614V6.01011L82.3093 12.8287H79.1213V4.82653H66.7691V5.36145H61.1371V4.82653H53.1318V4.54985H40.6136V4.82653H31.188V5.10321H26.5521V4.82653H14.1998V5.36145H2.45323V16.9574H4.73123C4.42381 17.2526 4.06413 17.4985 3.66448 17.7229L0 19.7888L7.35047 29.3466L10.271 27.6834C10.9627 27.2899 11.6267 26.8318 12.2446 26.3277C12.7027 26.6843 13.1823 27.0194 13.6803 27.3268L14.2029 27.6496V29.5925H26.5552V29.0238C28.1507 29.5495 30.0629 29.8138 32.3593 29.8138C36.7739 29.8138 39.9496 28.8116 41.8433 26.838C43.2697 27.6803 44.9821 28.1538 46.8758 28.1538C47.5337 28.1538 48.1731 28.0953 48.788 27.9816V29.5925H61.1402V28.1784L62.3545 27.6557C63.9839 26.9548 65.4626 26.0787 66.7722 25.0549V29.5925H78.9676V31.6553H111.659V12.8318H108.314L108.311 12.8287Z" fill="#89F1FF"/>
<path d="M96.7443 4.30518H93.8545V14.0013H96.7443V4.30518Z" fill="black"/>
<path d="M89.3334 11.8834L87.1943 14.0225L92.3745 19.2026L94.5135 17.0636L89.3334 11.8834Z" fill="black"/>
<path d="M95.307 17.8493L93.168 19.9883L95.307 22.1273L97.446 19.9883L95.307 17.8493Z" fill="black"/>
<path d="M101.271 11.8818L96.0908 17.062L98.2298 19.201L103.41 14.0209L101.271 11.8818Z" fill="black"/>
<path d="M107.344 24.1309H83.2607V27.3465H107.344V24.1309Z" fill="black"/>
<path d="M86.4764 17.1318H83.2607V22.6286H86.4764V17.1318Z" fill="black"/>
<path d="M107.337 17.1318H104.121V22.6286H107.337V17.1318Z" fill="black"/>
<path d="M15.9339 23.6614C14.2923 22.6469 12.9089 21.2266 12.1157 19.6957C11.4332 21.3188 9.84693 22.9605 8.13151 23.9381L5.77051 21.4664C8.64798 19.8432 10.2158 17.3346 10.2158 13.5533V12.6495H6.74811V9.66138H17.5018V12.6495H14.034V13.5533C14.034 17.2978 15.731 19.4928 18.2211 21.0053L15.9339 23.6614ZM18.4978 25.2846V17.6113H16.0815V14.2727H18.4978V9.12646H22.2422V25.2846H18.4978Z" fill="black"/>
<path d="M33.3529 18.0725C31.7112 17.7036 30.42 16.9473 29.4793 15.7483C28.3911 17.0764 27.063 17.8511 25.5136 18.4229L23.5215 15.9881C25.7165 15.1028 27.1183 13.9591 27.4319 12.4097H24.1302V9.40315H34.7363V12.4097H31.4161C31.6928 13.9407 32.8917 14.9368 35.0867 15.6008L33.3529 18.0725ZM32.3568 25.5059C27.2474 25.5059 25.2185 24.0119 25.2185 21.9275C25.2185 19.8432 27.2474 18.3491 32.3568 18.3491C37.4662 18.3491 39.5136 19.8617 39.5136 21.946C39.5136 22.4625 39.3845 22.942 39.1078 23.3663C38.3515 24.6759 36.175 25.5059 32.3568 25.5059ZM32.3568 21.2266C29.5531 21.2266 29.0551 21.5955 29.0551 21.9275C29.0551 22.278 29.5531 22.6285 32.3568 22.6285C33.7587 22.6285 34.6071 22.5547 35.0683 22.4256C35.5294 22.278 35.6585 22.112 35.6585 21.946C35.6585 21.5955 35.1789 21.2266 32.3568 21.2266ZM35.4894 18.2385V9.12646H39.2339V11.8933H40.8386V15.2319H39.2339V18.2385H35.4894Z" fill="black"/>
<path d="M41.3379 13.6867V10.883H44.9163V8.854H48.8267V10.883H52.4051V13.6867H41.3379ZM46.8715 23.847C43.828 23.847 41.8175 21.8918 41.8175 18.9405C41.8175 15.9893 43.828 14.0341 46.8715 14.0341C49.915 14.0341 51.9071 15.9893 51.9071 18.9405C51.9071 19.6784 51.778 20.3424 51.5382 20.9511C50.8373 22.7403 49.1772 23.847 46.8715 23.847ZM48.2549 18.9436C48.2549 17.2097 47.5355 16.7671 46.8715 16.7671C46.2075 16.7671 45.4881 17.2097 45.4881 18.9436C45.4881 20.6775 46.2075 21.1017 46.8715 21.1017C47.0375 21.1017 47.1851 21.0648 47.3511 21.0095C47.8675 20.825 48.2549 20.2348 48.2549 18.9436ZM53.0845 25.2857V9.13068H56.8289V15.1439H58.4521V18.4825H56.8289V25.2888H53.0845V25.2857Z" fill="black"/>
<path d="M58.6943 21.2663C62.5494 19.3295 64.8551 16.6918 65.39 12.9105H59.5613V9.66417H69.3004V10.8262C69.3004 16.8579 65.9249 21.4323 60.6495 23.7011L58.6943 21.2663ZM71.0681 25.2874V9.13232H74.8125V25.2905H71.0681V25.2874Z" fill="black"/>
</svg>
